<?xml version="1.0" standalone="no"?>
<!DOCTYPE svg PUBLIC "-//W3C//DTD SVG 20010904//EN"
 "http://www.w3.org/TR/2001/REC-SVG-20010904/DTD/svg10.dtd">
<svg version="1.0" xmlns="http://www.w3.org/2000/svg"
 width="260.000000pt" height="260.000000pt" viewBox="0 0 260.000000 260.000000"
 preserveAspectRatio="xMidYMid meet">
<metadata>
Created by potrace 1.14, written by Peter Selinger 2001-2017
</metadata>
<g transform="translate(0.000000,260.000000) scale(0.100000,-0.100000)"
fill="#000000" stroke="none">
<path d="M1250 2591 c0 -5 -8 -12 -17 -15 -28 -9 -68 -48 -85 -81 -11 -22 -15
-58 -13 -130 1 -55 -1 -108 -5 -118 -4 -12 -39 -31 -99 -54 -254 -95 -456
-298 -561 -565 -18 -46 -40 -90 -50 -98 -13 -12 -41 -15 -130 -13 -181 3 -200
-17 -200 -207 0 -202 20 -224 205 -225 l119 0 22 -33 c12 -18 30 -58 40 -90
10 -31 20 -59 23 -62 3 -3 17 -25 30 -50 65 -119 199 -265 316 -342 63 -41
172 -93 218 -103 69 -16 74 -26 72 -150 -1 -50 3 -104 9 -122 12 -35 60 -92
79 -94 6 -1 66 -2 132 -4 200 -4 223 17 220 201 -1 131 5 148 62 159 21 4 61
18 89 31 28 13 54 24 58 24 4 0 42 22 84 49 89 57 252 220 300 299 38 63 90
180 98 221 11 55 32 64 152 66 59 0 124 7 145 14 l37 13 0 193 0 193 -32 8
c-18 4 -83 8 -144 8 -128 1 -137 6 -158 76 -65 218 -240 431 -449 545 -57 31
-145 68 -220 92 -24 8 -28 32 -24 150 4 122 -9 159 -65 186 -21 10 -38 23 -38
28 0 5 -49 9 -110 9 -61 0 -110 -4 -110 -9z m-123 -599 c8 -5 11 -34 9 -89 -3
-77 -1 -83 28 -121 17 -22 41 -45 53 -51 25 -12 237 -16 268 -6 75 25 89 54
90 180 l0 90 31 0 c54 0 171 -73 271 -169 78 -74 99 -102 132 -170 55 -112 57
-123 29 -132 -13 -4 -60 -7 -104 -6 -75 1 -84 -1 -115 -28 l-34 -28 0 -156 0
-156 33 -28 c37 -32 39 -33 137 -35 88 -2 98 -8 89 -54 -25 -131 -192 -309
-376 -399 -49 -24 -61 -26 -83 -16 -24 11 -26 16 -19 45 4 17 8 55 9 82 2 116
-37 144 -206 146 -131 1 -153 -5 -197 -55 -33 -38 -36 -48 -33 -131 2 -65 -6
-95 -25 -95 -19 0 -137 63 -184 98 -48 36 -125 117 -170 177 -52 70 -102 181
-87 193 7 5 43 8 81 7 104 -4 144 13 176 75 16 29 15 247 0 295 -16 48 -52 63
-152 63 -121 0 -123 2 -86 88 16 39 40 83 54 99 13 15 24 31 24 34 0 28 214
211 246 211 5 0 23 11 39 25 31 25 51 30 72 17z"/>
</g>
</svg>
